<svg width="157" height="37" viewBox="0 0 157 37" fill="none" xmlns="http://www.w3.org/2000/svg">
<path d="M21.5704 15.2694L14.1752 7.86149C14.1 7.78616 13.9781 7.78616 13.9029 7.86149L0.454538 21.333C0.379337 21.4084 0.379339 21.5305 0.454539 21.6058L7.84968 29.0137C7.92488 29.089 8.0468 29.0891 8.122 29.0137L21.5704 15.5422C21.6456 15.4668 21.6456 15.3447 21.5704 15.2694Z" fill="#2F80ED"/>
<path d="M36.186 28.9763L43.5059 21.6438C43.6019 21.5477 43.6019 21.3918 43.5059 21.2956L30.1328 7.89951C30.0368 7.80334 29.8812 7.80334 29.7852 7.89951L22.4654 15.2319C22.3694 15.3281 22.3694 15.484 22.4654 15.5802L35.8384 28.9763C35.9344 29.0724 36.09 29.0724 36.186 28.9763Z" fill="#2F80ED"/>
<path d="M29.3329 28.5042L22.1105 21.2694C22.0495 21.2083 21.9505 21.2083 21.8895 21.2694L14.6671 28.5042C14.6061 28.5653 14.6061 28.6645 14.6671 28.7256L21.8895 35.9604C21.9505 36.0215 22.0495 36.0215 22.1105 35.9604L29.3329 28.7256C29.3939 28.6645 29.3939 28.5653 29.3329 28.5042Z" fill="#012555"/>
<path d="M29.3328 7.31668L22.1105 0.0819042C22.0495 0.0207592 21.9505 0.0207592 21.8895 0.0819042L14.6671 7.31668C14.6061 7.37783 14.6061 7.47696 14.6671 7.53811L21.8895 14.7729C21.9505 14.834 22.0495 14.834 22.1105 14.7729L29.3328 7.53811C29.3939 7.47696 29.3939 7.37783 29.3328 7.31668Z" fill="#012555"/>
<path d="M62.2797 23.4526H54.9723L53.2637 28H50.0832L57.2328 9.60013H58.626C59.5722 9.60013 60.2294 10.0645 60.5974 10.9933L67.1688 28H63.9619L62.2797 23.4526ZM55.8397 20.8766H61.4122L58.6522 13.4115H58.626L55.8397 20.8766ZM72.46 28.2103C70.8478 28.2103 69.551 27.7459 68.5697 26.8172C67.6059 25.8884 67.124 24.6617 67.124 23.1372V19.8252C67.124 18.8088 67.343 17.9151 67.7811 17.1441C68.2192 16.3555 68.8413 15.7509 69.6474 15.3304C70.4535 14.8923 71.3822 14.6732 72.4337 14.6732H74.5365C76.0435 14.6732 77.2527 15.1113 78.1639 15.9875C79.0927 16.8462 79.557 17.9852 79.557 19.4046H76.5868C76.5868 18.7738 76.394 18.2656 76.0085 17.8801C75.6405 17.477 75.1498 17.2755 74.5365 17.2755H72.46C71.7765 17.2755 71.2158 17.5296 70.7777 18.0378C70.3571 18.546 70.1468 19.2031 70.1468 20.0092V22.9532C70.1468 23.7417 70.3571 24.3814 70.7777 24.872C71.2158 25.3627 71.7853 25.608 72.4862 25.608H74.5628C75.2112 25.608 75.7281 25.3714 76.1136 24.8983C76.5167 24.4252 76.7182 23.8118 76.7182 23.0583H79.6885C79.6885 24.6004 79.2153 25.8446 78.2691 26.7909C77.3403 27.7371 76.1049 28.2103 74.5628 28.2103H72.46ZM85.9118 28.2103C84.2996 28.2103 83.0028 27.7459 82.0215 26.8172C81.0577 25.8884 80.5758 24.6617 80.5758 23.1372V19.8252C80.5758 18.8088 80.7949 17.9151 81.233 17.1441C81.671 16.3555 82.2931 15.7509 83.0992 15.3304C83.9053 14.8923 84.8341 14.6732 85.8855 14.6732H87.9883C89.4954 14.6732 90.7045 15.1113 91.6157 15.9875C92.5445 16.8462 93.0089 17.9852 93.0089 19.4046H90.0386C90.0386 18.7738 89.8458 18.2656 89.4603 17.8801C89.0923 17.477 88.6017 17.2755 87.9883 17.2755H85.9118C85.2284 17.2755 84.6676 17.5296 84.2295 18.0378C83.8089 18.546 83.5986 19.2031 83.5986 20.0092V22.9532C83.5986 23.7417 83.8089 24.3814 84.2295 24.872C84.6676 25.3627 85.2371 25.608 85.9381 25.608H88.0146C88.663 25.608 89.1799 25.3714 89.5655 24.8983C89.9685 24.4252 90.17 23.8118 90.17 23.0583H93.1403C93.1403 24.6004 92.6672 25.8446 91.7209 26.7909C90.7921 27.7371 89.5567 28.2103 88.0146 28.2103H85.9118ZM96.5248 13.4115C95.929 13.4115 95.4471 13.2363 95.0791 12.8858C94.7286 12.5178 94.5533 12.0534 94.5533 11.4927C94.5533 10.9319 94.7286 10.4763 95.0791 10.1258C95.4471 9.75785 95.929 9.57385 96.5248 9.57385C97.1206 9.57385 97.6025 9.75785 97.9705 10.1258C98.3385 10.4763 98.5225 10.9319 98.5225 11.4927C98.5225 12.0534 98.3385 12.5178 97.9705 12.8858C97.6025 13.2363 97.1206 13.4115 96.5248 13.4115ZM95.0265 14.8835H98.0493V28H95.0265V14.8835ZM105.68 28.2103C104.068 28.2103 102.771 27.7459 101.79 26.8172C100.808 25.8709 100.318 24.6267 100.318 23.0846V19.8252C100.318 18.8088 100.537 17.9151 100.975 17.1441C101.43 16.3555 102.061 15.7509 102.867 15.3304C103.691 14.8923 104.637 14.6732 105.706 14.6732H108.019C109.088 14.6732 110.026 14.8923 110.832 15.3304C111.656 15.7509 112.286 16.3555 112.724 17.1441C113.18 17.9151 113.408 18.8088 113.408 19.8252V23.0846C113.408 24.6267 112.908 25.8709 111.91 26.8172C110.928 27.7459 109.614 28.2103 107.967 28.2103H105.68ZM107.94 25.608C108.676 25.608 109.264 25.3627 109.702 24.872C110.157 24.3638 110.385 23.7067 110.385 22.9006V19.9829C110.385 19.1768 110.166 18.5284 109.728 18.0378C109.29 17.5296 108.703 17.2755 107.967 17.2755H105.759C105.023 17.2755 104.436 17.5296 103.998 18.0378C103.56 18.5284 103.341 19.1768 103.341 19.9829V22.9006C103.341 23.7067 103.56 24.3638 103.998 24.872C104.436 25.3627 105.005 25.608 105.706 25.608H107.94ZM119.767 28.2103C118.646 28.2103 117.656 27.9474 116.797 27.4217C115.938 26.8785 115.273 26.125 114.799 25.1612C114.326 24.1798 114.09 23.0583 114.09 21.7966H117.112C117.112 22.9181 117.358 23.8206 117.848 24.504C118.339 25.1699 118.979 25.5029 119.767 25.5029H121.87C122.676 25.5029 123.316 25.1524 123.789 24.4515C124.28 23.733 124.525 22.7779 124.525 21.5863V9.60013H127.6V21.6915C127.6 23.0058 127.364 24.1536 126.891 25.1349C126.435 26.1162 125.778 26.8785 124.919 27.4217C124.078 27.9474 123.097 28.2103 121.975 28.2103H119.767ZM134.637 28.2103C133.025 28.2103 131.728 27.7459 130.747 26.8172C129.766 25.8709 129.275 24.6267 129.275 23.0846V19.8252C129.275 18.8088 129.494 17.9151 129.932 17.1441C130.388 16.3555 131.018 15.7509 131.825 15.3304C132.648 14.8923 133.594 14.6732 134.663 14.6732H136.977C138.045 14.6732 138.983 14.8923 139.789 15.3304C140.613 15.7509 141.244 16.3555 141.682 17.1441C142.137 17.9151 142.365 18.8088 142.365 19.8252V23.0846C142.365 24.6267 141.866 25.8709 140.867 26.8172C139.885 27.7459 138.571 28.2103 136.924 28.2103H134.637ZM136.898 25.608C137.634 25.608 138.221 25.3627 138.659 24.872C139.114 24.3638 139.342 23.7067 139.342 22.9006V19.9829C139.342 19.1768 139.123 18.5284 138.685 18.0378C138.247 17.5296 137.66 17.2755 136.924 17.2755H134.716C133.98 17.2755 133.393 17.5296 132.955 18.0378C132.517 18.5284 132.298 19.1768 132.298 19.9829V22.9006C132.298 23.7067 132.517 24.3638 132.955 24.872C133.393 25.3627 133.962 25.608 134.663 25.608H136.898ZM150.091 28.2103C149.531 28.2103 148.952 28.035 148.357 27.6846C147.778 27.3166 147.314 26.861 146.963 26.3177V28H144.151V9.60013H147.174V16.0927C147.524 15.6546 147.971 15.3129 148.514 15.0675C149.057 14.8047 149.601 14.6732 150.144 14.6732H151.984C152.948 14.6732 153.806 14.8923 154.56 15.3304C155.313 15.7509 155.9 16.3467 156.321 17.1178C156.742 17.8888 156.952 18.7738 156.952 19.7726V22.9006C156.952 23.952 156.742 24.8808 156.321 25.6869C155.9 26.493 155.305 27.1151 154.534 27.5531C153.78 27.9912 152.913 28.2103 151.931 28.2103H150.091ZM151.616 25.5554C152.299 25.5554 152.86 25.3014 153.298 24.7932C153.736 24.2675 153.955 23.584 153.955 22.7429V19.9566C153.955 19.1681 153.745 18.5372 153.324 18.0641C152.904 17.5734 152.361 17.3281 151.695 17.3281H150.013C149.241 17.3281 148.593 17.6085 148.067 18.1692C147.542 18.7124 147.244 19.4309 147.174 20.3246V22.9006C147.261 23.6717 147.559 24.3113 148.067 24.8195C148.593 25.3101 149.198 25.5554 149.881 25.5554H151.616Z" fill="#012555"/>
</svg>
